# xmcd
#
# Track frame offsets:
#	150
#	15647
#	30075
#	45667
#	54412
#	71877
#	83807
#	100192
#	113197
#
# Disc length: 1640 seconds
#
# Revision: 3
# Processed by: cddbd v1.5.2PL0 Copyright (c) Steve Scherf et al.
# Submitted via: audiograbber 1.83.01
#
DISCID=68066609
DTITLE=Oblivians - Play 9 Songs With Mr. Quintron
DYEAR=1997
DGENRE=garage soul
TTITLE0=Feel All Right
TTITLE1=Live The Life
TTITLE2=I May Be Gone
TTITLE3=I Don't Wanna Live Alone
TTITLE4=Final Stretch
TTITLE5=What's The Matter Now
TTITLE6=Ride That Train
TTITLE7=If Mother Knew
TTITLE8=Mary Lou
EXTD=
EXTT0=
EXTT1=
EXTT2=
EXTT3=
EXTT4=
EXTT5=
EXTT6=
EXTT7=
EXTT8=
PLAYORDER=
